<?xml version="1.0" standalone="no"?><!DOCTYPE svg PUBLIC "-//W3C//DTD SVG 1.1//EN" "http://www.w3.org/Graphics/SVG/1.1/DTD/svg11.dtd"><svg t="1607447027146" class="icon" viewBox="0 0 1024 1024" version="1.1" xmlns="http://www.w3.org/2000/svg" p-id="3221" width="200" height="200" xmlns:xlink="http://www.w3.org/1999/xlink"><defs><style type="text/css"></style></defs><path d="M815.424 913.024m-54.912 0a0.858 0.858 0 1 0 109.824 0 0.858 0.858 0 1 0-109.824 0ZM357.184 913.024m-54.912 0a0.858 0.858 0 1 0 109.824 0 0.858 0.858 0 1 0-109.824 0ZM947.392 196.544c-14.656-16.512-34.88-25.664-56.832-25.664L350.72 170.88 343.424 170.88 341.824 170.88 323.968 170.88 237.12 170.88c-6.336-0.512-11.584-4.928-13.44-10.816L221.696 148.416c-1.28-10.432-4.48-20.288-9.216-29.312C212.032 118.464 211.648 117.76 211.264 117.056 210.56 115.776 209.792 114.56 209.024 113.28c-15.424-24.32-42.624-40.576-72.384-40.576L94.912 72.704c-9.92 0-18.432 6.336-21.248 15.808l-1.92 6.336 1.92 6.336C76.48 110.72 85.056 117.12 94.912 117.12l41.856 0c19.648 0 38.4 17.408 41.024 38.016l31.488 182.656 55.616 390.912c4.992 42.432 41.856 75.648 83.84 75.648l531.584 0c12.224 0 22.208-9.92 22.208-22.208s-9.92-22.208-22.208-22.208L348.736 759.936c-11.712 0-23.424-6.272-31.36-16.704L316.8 742.464c-3.712-5.952-5.696-12.864-5.696-19.84 0-16.448 10.496-30.912 26.176-35.904l1.088-0.384 495.296-45.632c41.152 0 78.656-33.152 83.648-73.92l0.064-0.512 51.456-294.656C972.16 243.008 964.352 215.68 947.392 196.544z" p-id="3222" fill="#707070"></path></svg>